<?xml version="1.0" encoding="UTF-8" standalone="no"?>
<svg xmlns="http://www.w3.org/2000/svg" viewBox="0 0 400 120">
  <!-- Logo Symbol -->
  <g transform="translate(20, 10)">
    <!-- Dynamic leg shape -->
    <path d="M40 15
             C60 15 70 25 70 40
             C70 55 60 65 55 75
             L45 90
             C43 92 42 92 40 92
             C38 92 37 92 35 90
             L25 75
             C20 65 10 55 10 40
             C10 25 20 15 40 15Z" 
          fill="#2196F3"/>
    
    <!-- Support brackets -->
    <path d="M20 45 
             L30 45
             L30 65
             L50 65
             L50 45
             L60 45" 
          stroke="#2196F3" 
          stroke-width="3"
          fill="none"
          stroke-linecap="round"/>
    
    <!-- Motion lines -->
    <path d="M15 35 C25 38 55 38 65 35" 
          stroke="#2196F3" 
          fill="none" 
          stroke-width="2"
          stroke-linecap="round"/>
  </g>
  
  <!-- Company Name -->
  <g transform="translate(100, 65)">
    <text font-family="Arial, sans-serif" font-weight="bold" font-size="40" fill="#2196F3">
      ORTHOSPRINT
    </text>
    <!-- Tagline -->
    <text font-family="Arial, sans-serif" font-size="16" fill="#666666" x="5" y="25">
      PROSTHETIC &amp; ORTHOTIC CENTRE
    </text>
  </g>
</svg>